<?xml version="1.0" encoding="utf-8"?>
<!-- Generator: Adobe Illustrator 16.0.0, SVG Export Plug-In . SVG Version: 6.00 Build 0)  -->
<!DOCTYPE svg PUBLIC "-//W3C//DTD SVG 1.1//EN" "http://www.w3.org/Graphics/SVG/1.1/DTD/svg11.dtd">
<svg version="1.1" id="Layer_1" xmlns="http://www.w3.org/2000/svg" xmlns:xlink="http://www.w3.org/1999/xlink" x="0px" y="0px"
	 width="322px" height="262px" viewBox="0 0 322 262" enable-background="new 0 0 322 262" xml:space="preserve">
<path fill="#FFFFFF" d="M144.644,250.315c-8.898-20.13-14.984-43.17-14.01-70.76c0.784-22.215,10.124-49.567,27.009-57.991
	c12.709-6.341,28.016-6.62,41.795-6.311c-17.829-9.884-55.957-9.014-70.468,8.019c0.26-0.304,0.472-0.956,0.656-1.811
	c-0.343-0.225-0.614-0.679-0.545-1.293c0.391-3.492,0.261-7.26,0.985-10.681c0.248-1.176,0.595-2.287,0.964-3.387
	c0.107-1.132,0.224-2.079,0.368-2.691c1.568-6.673,3.826-12.931,6.864-18.693c2.997-5.681,6.716-10.653,10.87-14.919
	c2.604-2.672,14.902-10.899,16.43-13.031c-23.351-4.396-35.153,27.197-43.094,49.468v-3.167
	c-7.94-22.271-19.742-50.696-43.095-46.301c1.527,2.132,13.828,10.359,16.432,13.031c4.152,4.266,7.873,9.238,10.869,14.919
	c2.98,5.654,5.21,11.788,6.771,18.323c0.732,2.631,1.102,5.45,1.569,8.177c0.073,0.426,0.096,0.85,0.094,1.269
	c0.115,0.136,0.214,0.305,0.258,0.562c0.435,2.546,0.803,5.074,0.641,7.692c-0.033,0.552-0.303,0.897-0.621,1.039
	c0.166,0.694,0.356,1.229,0.581,1.494c-14.51-17.032-52.64-17.902-70.467-8.019c13.779-0.31,29.084-0.03,41.793,6.311
	c16.887,8.424,26.226,35.776,27.011,57.991c0.835,23.685-4.976,50.314-14.011,70.76"/>
<path fill="#FFFFFF" d="M68.727,147.076c-12.881,10.33-15.413,22.836-15.184,33.638c10.09,2.386,23.252,2.817,36.135-7.513
	c12.881-10.33,18.634-24.554,12.85-31.768C96.742,134.22,81.609,136.746,68.727,147.076z"/>
<path fill="#FFFFFF" d="M54.203,121.737c-11.418,3.854-16.285,11.791-18.831,19.254c6.317,4.164,15.23,7.754,26.648,3.899
	c11.416-3.856,18.919-12.166,16.764-18.557C76.623,119.938,65.62,117.883,54.203,121.737z"/>
<path fill="#FFFFFF" d="M30.144,102.646c-9.47-0.438-15.307,3.986-19.31,8.729c3.439,4.854,8.948,10.036,18.419,10.478
	c9.469,0.439,17.345-3.506,17.592-8.808C47.089,107.74,39.613,103.087,30.144,102.646z"/>
<path fill="#FFFFFF" d="M83.157,76.218c-14.078-4.928-24.609-1.124-32.501,3.969c3.263,8.633,9.505,18.669,23.585,23.597
	c14.078,4.923,27.486,2.743,29.949-4.865C106.653,91.303,97.236,81.143,83.157,76.218z"/>
<path fill="#FFFFFF" d="M74.41,37.777c-8.136-4.551-15.217-3.227-20.821-0.816c0.891,5.785,3.453,12.766,11.589,17.32
	c8.137,4.549,16.798,4.546,19.35-0.01C87.075,49.714,82.547,42.332,74.41,37.777z"/>
<path fill="#FFFFFF" d="M141.113,45.667c-0.162-16.543-8.099-26.099-16.385-32.413c-7.777,6.655-15.896,16.95-15.733,33.494
	c0.168,16.542,7.492,29.711,16.357,29.414C134.224,75.863,141.277,62.21,141.113,45.667z"/>
<path fill="#FFFFFF" d="M162.801,74.175c14.08-4.927,24.61-1.123,32.501,3.97c-3.262,8.633-9.506,18.669-23.584,23.596
	c-14.078,4.923-27.487,2.744-29.95-4.864C138.206,85.864,149.818,78.718,162.801,74.175z"/>
<path fill="#FFFFFF" d="M173.456,37.458c8.351-4.671,15.617-3.312,21.37-0.838c-0.913,5.937-3.545,13.101-11.892,17.774
	c-8.354,4.669-17.243,4.666-19.859-0.01C160.459,49.707,165.107,42.132,173.456,37.458z"/>
<g>
	<g>
		<path fill="#FFFFFF" d="M166.103,158.037c-0.317,0.582-0.807,0.873-1.468,0.873c-0.396,0-0.847-0.146-1.349-0.437
			c-0.503-0.291-1.118-0.615-1.845-0.972c-0.728-0.357-1.594-0.688-2.599-0.992c-1.005-0.304-2.195-0.456-3.57-0.456
			c-1.19,0-2.261,0.152-3.213,0.456c-0.952,0.305-1.766,0.721-2.44,1.25c-0.674,0.529-1.189,1.145-1.547,1.845
			c-0.357,0.701-0.535,1.462-0.535,2.281c0,1.031,0.297,1.891,0.893,2.578c0.595,0.688,1.381,1.283,2.36,1.785
			c0.978,0.503,2.089,0.946,3.332,1.329c1.243,0.384,2.52,0.793,3.828,1.229c1.31,0.437,2.585,0.92,3.828,1.448
			c1.243,0.529,2.354,1.19,3.332,1.983c0.979,0.794,1.766,1.766,2.361,2.916c0.595,1.15,0.893,2.532,0.893,4.146
			c0,1.852-0.331,3.564-0.992,5.138s-1.641,2.936-2.936,4.086c-1.296,1.15-2.883,2.057-4.761,2.717
			c-1.878,0.661-4.046,0.992-6.506,0.992c-2.804,0-5.343-0.456-7.616-1.369c-2.275-0.912-4.205-2.082-5.792-3.511l1.666-2.697
			c0.211-0.344,0.462-0.608,0.754-0.793c0.29-0.186,0.674-0.278,1.15-0.278c0.476,0,0.978,0.186,1.507,0.556
			c0.529,0.371,1.171,0.78,1.924,1.229c0.754,0.45,1.667,0.86,2.737,1.23c1.071,0.37,2.413,0.555,4.027,0.555
			c1.374,0,2.578-0.179,3.609-0.535c1.032-0.357,1.891-0.84,2.579-1.448c0.688-0.608,1.196-1.309,1.527-2.103
			c0.33-0.793,0.496-1.64,0.496-2.539c0-1.11-0.298-2.029-0.893-2.757c-0.596-0.728-1.383-1.349-2.361-1.864
			s-2.096-0.966-3.352-1.349c-1.257-0.384-2.539-0.787-3.849-1.21c-1.309-0.423-2.592-0.906-3.848-1.448
			c-1.257-0.542-2.374-1.223-3.353-2.043c-0.979-0.819-1.765-1.831-2.36-3.035c-0.595-1.203-0.893-2.664-0.893-4.384
			c0-1.533,0.317-3.008,0.952-4.423s1.561-2.658,2.777-3.729c1.216-1.07,2.711-1.924,4.482-2.559s3.795-0.952,6.07-0.952
			c2.644,0,5.018,0.417,7.12,1.25s3.921,1.978,5.455,3.432L166.103,158.037z"/>
		<path fill="#FFFFFF" d="M193.436,150.777c2.406,0,4.627,0.404,6.664,1.21c2.036,0.808,3.795,1.971,5.276,3.491
			c1.48,1.521,2.638,3.398,3.471,5.634c0.834,2.234,1.25,4.78,1.25,7.636c0,1.111-0.119,1.852-0.357,2.222
			c-0.237,0.371-0.688,0.556-1.349,0.556h-26.737c0.053,2.539,0.396,4.747,1.031,6.625s1.508,3.445,2.618,4.701
			s2.433,2.195,3.967,2.816c1.534,0.622,3.253,0.933,5.157,0.933c1.771,0,3.299-0.205,4.582-0.615
			c1.282-0.41,2.387-0.853,3.312-1.329c0.926-0.476,1.699-0.919,2.32-1.329c0.621-0.409,1.157-0.614,1.607-0.614
			c0.581,0,1.031,0.225,1.349,0.674l1.983,2.579c-0.873,1.058-1.918,1.977-3.134,2.757c-1.217,0.78-2.52,1.422-3.908,1.924
			c-1.388,0.503-2.823,0.88-4.304,1.131c-1.481,0.251-2.949,0.377-4.403,0.377c-2.777,0-5.336-0.47-7.677-1.408
			c-2.34-0.938-4.363-2.314-6.069-4.126s-3.035-4.053-3.987-6.725c-0.951-2.671-1.428-5.738-1.428-9.203
			c0-2.803,0.43-5.421,1.289-7.854s2.096-4.543,3.71-6.328c1.612-1.785,3.583-3.187,5.91-4.205
			C187.907,151.287,190.525,150.777,193.436,150.777z M193.594,155.975c-3.411,0-6.096,0.985-8.053,2.955
			c-1.958,1.971-3.174,4.701-3.65,8.192h21.858c0-1.64-0.225-3.141-0.674-4.503c-0.45-1.361-1.111-2.539-1.983-3.53
			c-0.873-0.992-1.938-1.759-3.193-2.301C196.642,156.246,195.207,155.975,193.594,155.975z"/>
		<path fill="#FFFFFF" d="M235.009,150.777c2.406,0,4.627,0.404,6.664,1.21c2.036,0.808,3.795,1.971,5.276,3.491
			c1.48,1.521,2.638,3.398,3.471,5.634c0.834,2.234,1.25,4.78,1.25,7.636c0,1.111-0.119,1.852-0.357,2.222
			c-0.237,0.371-0.688,0.556-1.349,0.556h-26.737c0.053,2.539,0.396,4.747,1.031,6.625s1.508,3.445,2.618,4.701
			s2.433,2.195,3.967,2.816c1.534,0.622,3.253,0.933,5.157,0.933c1.771,0,3.299-0.205,4.582-0.615
			c1.282-0.41,2.387-0.853,3.312-1.329c0.926-0.476,1.699-0.919,2.32-1.329c0.621-0.409,1.157-0.614,1.607-0.614
			c0.581,0,1.031,0.225,1.349,0.674l1.983,2.579c-0.873,1.058-1.918,1.977-3.134,2.757c-1.217,0.78-2.52,1.422-3.908,1.924
			c-1.388,0.503-2.823,0.88-4.304,1.131c-1.481,0.251-2.949,0.377-4.403,0.377c-2.777,0-5.336-0.47-7.677-1.408
			c-2.34-0.938-4.363-2.314-6.069-4.126s-3.035-4.053-3.987-6.725c-0.951-2.671-1.428-5.738-1.428-9.203
			c0-2.803,0.43-5.421,1.289-7.854s2.096-4.543,3.71-6.328c1.612-1.785,3.583-3.187,5.91-4.205
			C229.48,151.287,232.099,150.777,235.009,150.777z M235.167,155.975c-3.411,0-6.096,0.985-8.053,2.955
			c-1.958,1.971-3.174,4.701-3.65,8.192h21.858c0-1.64-0.225-3.141-0.674-4.503c-0.45-1.361-1.111-2.539-1.983-3.53
			c-0.873-0.992-1.938-1.759-3.193-2.301C238.215,156.246,236.78,155.975,235.167,155.975z"/>
		<path fill="#FFFFFF" d="M288.96,191.599c-1.006,0-1.641-0.489-1.904-1.468l-0.635-4.88c-1.72,2.09-3.684,3.763-5.891,5.019
			c-2.209,1.257-4.741,1.885-7.598,1.885c-2.301,0-4.39-0.443-6.268-1.329s-3.479-2.188-4.8-3.907
			c-1.323-1.72-2.341-3.861-3.055-6.427c-0.715-2.565-1.071-5.515-1.071-8.847c0-2.962,0.396-5.719,1.19-8.271
			c0.793-2.552,1.937-4.767,3.431-6.645s3.312-3.353,5.455-4.424s4.575-1.606,7.3-1.606c2.459,0,4.562,0.417,6.308,1.25
			c1.745,0.833,3.306,2.003,4.681,3.511v-22.295h7.062v58.435H288.96z M275.273,186.441c2.301,0,4.317-0.528,6.05-1.587
			c1.731-1.058,3.325-2.552,4.78-4.482v-19.438c-1.296-1.746-2.718-2.969-4.265-3.67c-1.547-0.7-3.26-1.051-5.138-1.051
			c-3.755,0-6.638,1.335-8.647,4.006c-2.011,2.672-3.016,6.48-3.016,11.426c0,2.618,0.225,4.859,0.675,6.724
			c0.449,1.865,1.11,3.399,1.983,4.603s1.944,2.082,3.214,2.638C272.179,186.164,273.634,186.441,275.273,186.441z"/>
	</g>
</g>
<g>
	<path fill="#FFFFFF" d="M188.117,249.233c-3.174,0-5.613-0.886-7.319-2.658c-1.706-1.771-2.559-4.324-2.559-7.656v-24.596h-4.84
		c-0.423,0-0.78-0.125-1.071-0.377c-0.291-0.251-0.437-0.641-0.437-1.17v-2.816l6.586-0.834l1.626-12.416
		c0.053-0.397,0.225-0.721,0.516-0.973c0.291-0.251,0.661-0.377,1.111-0.377h3.57v13.846h11.504v5.117h-11.504v24.12
		c0,1.692,0.409,2.949,1.229,3.769c0.819,0.82,1.878,1.229,3.174,1.229c0.74,0,1.382-0.099,1.924-0.298
		c0.542-0.198,1.012-0.416,1.408-0.654s0.734-0.456,1.012-0.654s0.522-0.298,0.734-0.298c0.37,0,0.7,0.226,0.991,0.675l2.063,3.372
		c-1.217,1.137-2.685,2.029-4.404,2.678C191.714,248.909,189.942,249.233,188.117,249.233z"/>
	<path fill="#FFFFFF" d="M205.531,248.599v-40.187h4.046c0.768,0,1.296,0.146,1.587,0.437s0.489,0.794,0.596,1.508l0.476,6.268
		c1.375-2.803,3.074-4.991,5.098-6.565c2.023-1.573,4.396-2.36,7.121-2.36c1.11,0,2.115,0.126,3.015,0.377
		c0.899,0.252,1.732,0.602,2.499,1.051l-0.912,5.276c-0.186,0.662-0.595,0.992-1.229,0.992c-0.371,0-0.939-0.125-1.706-0.377
		c-0.768-0.251-1.839-0.377-3.213-0.377c-2.46,0-4.517,0.714-6.169,2.143c-1.653,1.428-3.035,3.504-4.146,6.228v25.588H205.531z"/>
	<path fill="#FFFFFF" d="M253.414,207.777c2.406,0,4.627,0.404,6.664,1.21c2.036,0.808,3.795,1.971,5.276,3.491
		c1.48,1.521,2.638,3.398,3.471,5.634c0.834,2.234,1.25,4.78,1.25,7.636c0,1.111-0.119,1.852-0.357,2.222
		c-0.237,0.371-0.688,0.556-1.349,0.556h-26.737c0.053,2.539,0.396,4.747,1.031,6.625s1.508,3.445,2.618,4.701
		s2.433,2.195,3.967,2.816c1.534,0.622,3.253,0.933,5.157,0.933c1.771,0,3.299-0.205,4.582-0.615
		c1.282-0.41,2.387-0.853,3.312-1.329c0.926-0.476,1.699-0.919,2.32-1.329c0.621-0.409,1.157-0.614,1.607-0.614
		c0.581,0,1.031,0.225,1.349,0.674l1.983,2.579c-0.873,1.058-1.918,1.977-3.134,2.757c-1.217,0.78-2.52,1.422-3.908,1.924
		c-1.388,0.503-2.823,0.88-4.304,1.131c-1.481,0.251-2.949,0.377-4.403,0.377c-2.777,0-5.336-0.47-7.677-1.408
		c-2.34-0.938-4.363-2.314-6.069-4.126s-3.035-4.053-3.987-6.725c-0.951-2.671-1.428-5.738-1.428-9.203
		c0-2.803,0.43-5.421,1.289-7.854s2.096-4.543,3.71-6.328c1.612-1.785,3.583-3.187,5.91-4.205
		C247.886,208.287,250.504,207.777,253.414,207.777z M253.572,212.975c-3.411,0-6.096,0.985-8.053,2.955
		c-1.958,1.971-3.174,4.701-3.65,8.192h21.858c0-1.64-0.225-3.141-0.674-4.503c-0.45-1.361-1.111-2.539-1.983-3.53
		c-0.873-0.992-1.938-1.759-3.193-2.301C256.62,213.246,255.186,212.975,253.572,212.975z"/>
	<path fill="#FFFFFF" d="M294.988,207.777c2.406,0,4.627,0.404,6.664,1.21c2.036,0.808,3.795,1.971,5.276,3.491
		c1.48,1.521,2.638,3.398,3.471,5.634c0.834,2.234,1.25,4.78,1.25,7.636c0,1.111-0.119,1.852-0.357,2.222
		c-0.237,0.371-0.688,0.556-1.349,0.556h-26.737c0.053,2.539,0.396,4.747,1.031,6.625s1.508,3.445,2.618,4.701
		s2.433,2.195,3.967,2.816c1.534,0.622,3.253,0.933,5.157,0.933c1.771,0,3.299-0.205,4.582-0.615
		c1.282-0.41,2.387-0.853,3.312-1.329c0.926-0.476,1.699-0.919,2.32-1.329c0.621-0.409,1.157-0.614,1.607-0.614
		c0.581,0,1.031,0.225,1.349,0.674l1.983,2.579c-0.873,1.058-1.918,1.977-3.134,2.757c-1.217,0.78-2.52,1.422-3.908,1.924
		c-1.388,0.503-2.823,0.88-4.304,1.131c-1.481,0.251-2.949,0.377-4.403,0.377c-2.777,0-5.336-0.47-7.677-1.408
		c-2.34-0.938-4.363-2.314-6.069-4.126s-3.035-4.053-3.987-6.725c-0.951-2.671-1.428-5.738-1.428-9.203
		c0-2.803,0.43-5.421,1.289-7.854s2.096-4.543,3.71-6.328c1.612-1.785,3.583-3.187,5.91-4.205
		C289.46,208.287,292.078,207.777,294.988,207.777z M295.146,212.975c-3.411,0-6.096,0.985-8.053,2.955
		c-1.958,1.971-3.174,4.701-3.65,8.192h21.858c0-1.64-0.225-3.141-0.674-4.503c-0.45-1.361-1.111-2.539-1.983-3.53
		c-0.873-0.992-1.938-1.759-3.193-2.301C298.194,213.246,296.76,212.975,295.146,212.975z"/>
</g>
<path fill="#FFFFFF" d="M215.162,103.646c9.47-0.438,15.307,3.986,19.31,8.729c-3.439,4.854-8.948,10.036-18.419,10.478
	c-9.469,0.439-17.345-3.506-17.592-8.808C198.217,108.74,205.692,104.087,215.162,103.646z"/>
</svg>
