<?xml version="1.0" encoding="utf-8"?>
<!-- Generator: Adobe Illustrator 16.0.0, SVG Export Plug-In . SVG Version: 6.00 Build 0)  -->
<!DOCTYPE svg PUBLIC "-//W3C//DTD SVG 1.1//EN" "http://www.w3.org/Graphics/SVG/1.1/DTD/svg11.dtd">
<svg version="1.1" id="Layer_1" xmlns="http://www.w3.org/2000/svg" xmlns:xlink="http://www.w3.org/1999/xlink" x="0px" y="0px"
	 width="362px" height="299px" viewBox="126.5 121.5 362 299" enable-background="new 126.5 121.5 362 299" xml:space="preserve">
<path fill="#5F5B5B" d="M195.786,371.019c0.748,0.463,0.924,0.771,1.056,1.485c1.034,5.621-5.467,17.854-10.56,24.52
	c-2.299,3.014-2.893,7.007-1.562,10.549c1.331,3.542,4.378,6.171,8.096,6.93c3.058,0.616,5.984,0.891,8.778,0.891
	c17.138,0,29.139-10.582,36.751-17.28c1.628-1.441,3.729-3.3,5.115-4.29c16.148,3.707,41.019,6.644,56.793,6.644
	c8.778,0,17.567-0.627,26.224-1.716c13.178,4.268,27.5,6.688,42.516,6.688c10.417,0,25.949-1.771,37.037-4.158
	c0.583,0.506,1.188,1.078,1.858,1.661c5.27,4.652,14.113,12.452,26.95,12.452c2.09,0,4.279-0.21,6.578-0.672
	c3.707-0.759,6.754-3.377,8.096-6.919c1.331-3.542,0.737-7.546-1.562-10.549c-3.113-4.103-5.962-9.867-6.325-12.639
	c26.895-17.138,42.922-44.451,42.922-73.293c0-17.766-6.193-34.342-16.742-48.532c-1.43-73.744-75.988-133.397-167.562-133.397
	c-92.466,0-167.695,60.797-167.695,135.531C132.558,306.779,156.197,346.434,195.786,371.019z M429.03,366.542
	c-4.906,3.047-8.041,7.645-9.064,13.288c-0.253,1.386-0.363,2.783-0.341,4.18c-3.41-2.783-7.304-5.247-12.265-5.247
	c-0.892,0-2.541,0.209-3.421,0.418c-9.317,2.299-25.322,4.246-34.947,4.246c-51.59,0-93.566-32.34-93.566-72.116
	c0-39.753,41.965-72.104,93.566-72.104c51.601,0,93.565,32.34,93.565,72.104C462.558,333.179,450.337,353.309,429.03,366.542z
	 M300.253,151.393c68.552,0,126.038,37.125,141.482,86.9c-19.877-13.156-45.188-21.076-72.743-21.076
	c-63.723,0-115.566,42.218-115.566,94.105c0,25.993,13.013,49.565,34.012,66.604c-13.772-1.012-30.184-3.344-40.865-5.983
	c-9.284-2.311-16.434,4.059-22.781,9.657c-2.629,2.321-5.115,4.434-7.568,6.204c2.178-6.192,3.41-12.914,2.255-19.238
	c-1.254-6.897-5.093-12.519-11.099-16.247c-33.077-20.537-52.833-53.218-52.833-87.406
	C154.558,202.323,219.92,151.393,300.253,151.393z"/>
</svg>
