<?xml version="1.0" encoding="utf-8"?>
<!-- Generator: Adobe Illustrator 16.0.0, SVG Export Plug-In . SVG Version: 6.00 Build 0)  -->
<!DOCTYPE svg PUBLIC "-//W3C//DTD SVG 1.1//EN" "http://www.w3.org/Graphics/SVG/1.1/DTD/svg11.dtd">
<svg version="1.1" id="Layer_1" xmlns="http://www.w3.org/2000/svg" xmlns:xlink="http://www.w3.org/1999/xlink" x="0px" y="0px"
	 width="361px" height="324px" viewBox="141.5 116.5 361 324" enable-background="new 141.5 116.5 361 324" xml:space="preserve">
<path fill="#FFFFFF" d="M487.44,200.816h-94.348c11.683-12.276,18.646-27.588,18.646-41.536c0-10.098-3.465-18.832-10.021-25.223
	c-6.49-6.336-15.301-9.691-25.476-9.691c-14.905,0-31.449,7.469-44.242,19.954c-3.63,3.553-6.798,7.414-9.548,11.44
	c-2.75-4.026-5.918-7.887-9.559-11.44c-12.793-12.496-29.337-19.954-44.243-19.954c-10.186,0-18.997,3.355-25.465,9.68
	c-6.567,6.402-10.032,15.136-10.032,25.234c0,13.948,6.963,29.26,18.645,41.536H157.44c-6.083,0-11,4.917-11,11v76.637
	c0,6.083,4.917,11,11,11h17.512v121.913c0,6.083,4.917,11,11,11h272.965c6.083,0,11-4.917,11-11V299.453h17.523
	c6.083,0,11-4.917,11-11v-76.637C498.44,205.733,493.523,200.816,487.44,200.816z M276.394,277.453v-54.637h92.07v54.637H276.394z
	 M368.475,299.453v110.913h-92.07V299.453H368.475z M376.241,146.366c3.003,0,7.204,0.594,10.108,3.432
	c2.256,2.2,3.399,5.39,3.399,9.482c0,8.789-5.335,19.448-13.927,27.83c-8.656,8.459-19.733,13.706-28.885,13.706
	c-3.004,0-7.205-0.594-10.099-3.421c-2.255-2.2-3.399-5.401-3.399-9.504c0-8.778,5.324-19.448,13.916-27.819
	C356.012,151.613,367.078,146.366,376.241,146.366z M258.53,149.776c2.893-2.827,7.095-3.421,10.098-3.421
	c9.163,0,20.229,5.258,28.886,13.706c8.58,8.382,13.916,19.03,13.925,27.808c0,4.114-1.144,7.315-3.398,9.504
	c-2.904,2.838-7.105,3.432-10.109,3.432c-9.152,0-20.229-5.258-28.886-13.706c-8.58-8.393-13.926-19.041-13.926-27.83
	C255.131,155.177,256.264,151.987,258.53,149.776z M168.44,222.816h85.954v54.637h-68.453H168.44V222.816z M196.952,299.453h57.453
	v110.913h-57.453V299.453z M447.917,410.366h-57.453V299.453h57.453V410.366z M476.44,277.453h-17.523h-68.453v-54.637h85.965
	v54.637H476.44z"/>
</svg>
