<?xml version="1.0" encoding="utf-8"?>
<!-- Generator: Adobe Illustrator 16.0.0, SVG Export Plug-In . SVG Version: 6.00 Build 0)  -->
<!DOCTYPE svg PUBLIC "-//W3C//DTD SVG 1.1//EN" "http://www.w3.org/Graphics/SVG/1.1/DTD/svg11.dtd">
<svg version="1.1" id="Layer_1" xmlns="http://www.w3.org/2000/svg" xmlns:xlink="http://www.w3.org/1999/xlink" x="0px" y="0px"
	 width="364px" height="345px" viewBox="105.5 100.5 364 345" enable-background="new 105.5 100.5 364 345" xml:space="preserve">
<path fill="#FFFFFF" d="M278.264,432.014c2.079,2.332,5.071,3.663,8.195,3.663h0.011c3.124,0,6.116-1.342,8.195-3.674
	l145.024-162.481c14.597-17.82,22.638-40.205,22.638-63.052c0-55.583-46.123-100.793-102.828-100.793
	c-27.918,0-53.944,10.78-73.172,29.975c-19.228-19.184-45.254-29.975-73.172-29.975c-56.694,0-102.828,45.21-102.828,100.793
	c0,22.858,8.041,45.265,23.034,63.547C134.769,271.733,244.637,394.449,278.264,432.014z M213.144,127.677
	c25.531,0,49.038,11.418,64.482,31.306c4.169,5.368,13.211,5.368,17.38,0c15.444-19.899,38.951-31.306,64.482-31.306
	c44.571,0,80.828,35.343,80.828,78.793c0,18.04-6.105,35.024-17.348,48.763l-136.51,152.944
	c-50.336-56.221-133.815-149.49-136.455-152.559c-11.561-14.113-17.666-31.108-17.666-49.148
	C132.327,163.031,168.583,127.677,213.144,127.677z"/>
</svg>
