<?xml version="1.0" encoding="utf-8"?>
<!-- Generator: Adobe Illustrator 16.0.0, SVG Export Plug-In . SVG Version: 6.00 Build 0)  -->
<!DOCTYPE svg PUBLIC "-//W3C//DTD SVG 1.1//EN" "http://www.w3.org/Graphics/SVG/1.1/DTD/svg11.dtd">
<svg version="1.1" id="Layer_1" xmlns="http://www.w3.org/2000/svg" xmlns:xlink="http://www.w3.org/1999/xlink" x="0px" y="0px"
	 width="363px" height="298px" viewBox="115.5 128.5 363 298" enable-background="new 115.5 128.5 363 298" xml:space="preserve">
<path fill="#FFFFFF" d="M468.828,257.411l-165-119.999c-3.861-2.816-9.086-2.816-12.947,0l-165,119.999
	c-4.906,3.564-5.995,10.45-2.42,15.356c3.575,4.917,10.439,5.984,15.367,2.431l21.714-15.796V410.3c0,6.083,4.928,11,11,11h88.825
	c6.072,0,11-4.917,11-11V306.977h51.975V410.3c0,6.083,4.928,11,11,11h88.825c6.072,0,11-4.917,11-11V259.413l21.714,15.796
	c1.958,1.419,4.224,2.102,6.457,2.102c3.399,0,6.754-1.574,8.91-4.533C474.834,267.872,473.734,260.986,468.828,257.411z
	 M412.167,399.311h-66.825V295.988c0-6.084-4.928-11-11-11h-73.975c-6.072,0-11,4.916-11,11v103.322h-66.825V243.408l114.818-83.501
	l114.818,83.501v155.902H412.167z"/>
</svg>
