<?xml version="1.0" encoding="utf-8"?>
<!-- Generator: Adobe Illustrator 16.0.0, SVG Export Plug-In . SVG Version: 6.00 Build 0)  -->
<!DOCTYPE svg PUBLIC "-//W3C//DTD SVG 1.1//EN" "http://www.w3.org/Graphics/SVG/1.1/DTD/svg11.dtd">
<svg version="1.1" id="Layer_1" xmlns="http://www.w3.org/2000/svg" xmlns:xlink="http://www.w3.org/1999/xlink" x="0px" y="0px"
	 width="363px" height="228px" viewBox="127.5 157.5 363 228" enable-background="new 127.5 157.5 363 228" xml:space="preserve">
<path fill="#5F5B5B" d="M484.778,371.393v-198c0-5.643-4.29-10.109-9.757-10.747c-0.1-0.022-0.188-0.044-0.275-0.055
	c-0.33-0.033-0.627-0.198-0.968-0.198h-330c-0.352,0-0.66,0.165-1.001,0.198c-0.715,0.066-1.386,0.209-2.079,0.418
	c-0.715,0.209-1.375,0.451-2.013,0.792c-0.583,0.308-1.1,0.682-1.617,1.089c-0.616,0.484-1.155,0.99-1.661,1.595
	c-0.209,0.253-0.495,0.385-0.682,0.66c-0.209,0.297-0.242,0.66-0.418,0.968c-0.374,0.66-0.649,1.32-0.88,2.057
	c-0.22,0.715-0.363,1.419-0.429,2.156c-0.033,0.363-0.209,0.682-0.209,1.056v198c0,6.083,4.917,11,11,11h330
	C479.861,382.393,484.778,377.465,484.778,371.393z M437.521,184.393l-129.194,89.012l-129.195-89.012H437.521z M154.778,360.393
	V194.326L302.09,295.823c1.881,1.298,4.059,1.946,6.237,1.946c2.178,0,4.356-0.648,6.237-1.946L462.778,193.71v166.683H154.778z"/>
</svg>
