<?xml version="1.0" encoding="utf-8"?>
<!-- Generator: Adobe Illustrator 16.0.0, SVG Export Plug-In . SVG Version: 6.00 Build 0)  -->
<!DOCTYPE svg PUBLIC "-//W3C//DTD SVG 1.1//EN" "http://www.w3.org/Graphics/SVG/1.1/DTD/svg11.dtd">
<svg version="1.1" id="Layer_1" xmlns="http://www.w3.org/2000/svg" xmlns:xlink="http://www.w3.org/1999/xlink" x="0px" y="0px"
	 width="296px" height="290.591px" viewBox="167.5 126.909 296 290.591" enable-background="new 167.5 126.909 296 290.591"
	 xml:space="preserve">
<path fill="#5F5B5B" d="M200.998,309.789c-0.218,0.467-0.483,0.917-0.639,1.415l-27.713,89.938
	c-2.396,7.779,5.974,16.148,13.752,13.752l89.939-27.713c0.498-0.156,0.941-0.412,1.416-0.639c0.148-0.069,0.311-0.062,0.459-0.132
	c0.078-0.047,0.117-0.117,0.194-0.163c0.895-0.49,1.742-1.073,2.473-1.805l174.527-174.527c4.301-4.301,4.301-11.255,0-15.556
	l-62.226-62.226c-4.302-4.301-11.255-4.301-15.557,0L203.098,306.662c-0.731,0.73-1.307,1.571-1.805,2.473
	c-0.046,0.078-0.117,0.117-0.163,0.194C201.052,309.47,201.067,309.641,200.998,309.789z M275.894,358.316l-14.468-27.565
	c-0.529-0.996-1.182-1.883-1.968-2.668c-0.786-0.786-1.672-1.439-2.667-1.968l-27.566-14.468l121.27-121.27l46.669,46.669
	L275.894,358.316z M199.799,387.741l17.688-57.403l26.041,13.675l13.674,26.041L199.799,387.741z M432.071,202.138l-19.352,19.353
	l-46.669-46.669l19.344-19.344l46.669,46.669L432.071,202.138z"/>
</svg>
