<?xml version="1.0" encoding="utf-8"?>
<!-- Generator: Adobe Illustrator 16.0.0, SVG Export Plug-In . SVG Version: 6.00 Build 0)  -->
<!DOCTYPE svg PUBLIC "-//W3C//DTD SVG 1.1//EN" "http://www.w3.org/Graphics/SVG/1.1/DTD/svg11.dtd">
<svg version="1.1" id="Layer_1" xmlns="http://www.w3.org/2000/svg" xmlns:xlink="http://www.w3.org/1999/xlink" x="0px" y="0px"
	 width="273px" height="358.034px" viewBox="8.5 4.5 273 358.034" enable-background="new 8.5 4.5 273 358.034"
	 xml:space="preserve">
<path fill="#5F5B5B" d="M136.991,353.638c2.046,3.036,5.467,4.852,9.12,4.852l0,0c3.662,0,7.084-1.826,9.118-4.852l103.796-154.198
	C271.433,179.651,278,156.925,278,133.704C278,63.568,218.786,6.5,146,6.5C73.213,6.5,14,63.568,14,133.704
	c0,23.254,6.589,46.024,19.239,66.132L136.991,353.638z M146.011,28.489c60.654,0,110,47.201,110,105.204
	c0,19.074-5.401,37.763-15.422,53.746l-94.49,140.36L51.675,187.812c-10.252-16.301-15.664-35.012-15.664-54.12
	C36.011,75.69,85.357,28.489,146.011,28.489z"/>
<path fill="#5F5B5B" d="M146.011,193.73c34.484,0,62.546-27.136,62.546-60.5c0-33.363-28.05-60.5-62.546-60.5
	s-62.546,27.137-62.546,60.5C83.465,166.594,111.526,193.73,146.011,193.73z M146.011,94.731c22.352,0,40.546,17.27,40.546,38.5
	s-18.183,38.5-40.546,38.5c-22.363,0-40.546-17.27-40.546-38.5S123.659,94.731,146.011,94.731z"/>
</svg>
