<?xml version="1.0" encoding="utf-8"?>
<!-- Generator: Adobe Illustrator 16.0.0, SVG Export Plug-In . SVG Version: 6.00 Build 0)  -->
<!DOCTYPE svg PUBLIC "-//W3C//DTD SVG 1.1//EN" "http://www.w3.org/Graphics/SVG/1.1/DTD/svg11.dtd">
<svg version="1.1" id="Layer_1" xmlns="http://www.w3.org/2000/svg" xmlns:xlink="http://www.w3.org/1999/xlink" x="0px" y="0px"
	 width="364px" height="362px" viewBox="120.5 89.5 364 362" enable-background="new 120.5 89.5 364 362" xml:space="preserve">
<path fill="#FFFFFF" d="M136.98,301.973l26.356,2.893c3.498,14.3,9.152,27.841,16.841,40.425l-16.082,20.009
	c-3.52,4.378-3.179,10.714,0.803,14.674l29.073,28.985c3.96,3.96,10.252,4.301,14.63,0.803l20.152-16.082
	c12.309,7.47,25.531,13.002,39.501,16.5l2.926,26.565c0.616,5.577,5.324,9.801,10.934,9.801h41.106c5.61,0,10.318-4.224,10.934-9.79
	l2.871-26.026c14.521-3.398,28.271-8.953,41.041-16.609l20.24,16.181c4.334,3.477,10.648,3.157,14.631-0.803l29.084-28.985
	c3.981-3.971,4.334-10.317,0.803-14.685l-15.95-19.8c7.964-12.837,13.772-26.664,17.347-41.295l25.157-2.75
	c5.588-0.615,9.812-5.323,9.812-10.934v-40.986c0-5.61-4.225-10.318-9.802-10.934l-25.091-2.75
	c-3.553-14.685-9.36-28.567-17.303-41.437l15.829-19.679c3.52-4.378,3.179-10.714-0.803-14.685l-29.084-28.985
	c-3.972-3.96-10.297-4.279-14.631-0.803l-20.031,16.016c-12.825-7.711-26.652-13.321-41.26-16.731l-2.86-25.74
	c-0.628-5.566-5.324-9.79-10.935-9.79h-41.106c-5.61,0-10.318,4.213-10.934,9.79l-2.915,26.279
	c-13.926,3.487-27.115,8.998-39.402,16.445l-20.361-16.258c-4.367-3.498-10.67-3.146-14.63,0.803l-29.084,28.985
	c-3.982,3.971-4.334,10.307-0.803,14.685l16.236,20.185c-7.766,12.672-13.453,26.334-16.962,40.777l-26.279,2.893
	c-5.577,0.616-9.801,5.324-9.801,10.934v40.986C127.179,296.637,131.403,301.355,136.98,301.973z M149.179,259.897l24.376-2.684
	c4.829-0.528,8.734-4.169,9.614-8.943c3.146-17.083,9.757-32.978,19.646-47.234c2.783-4.004,2.585-9.361-0.462-13.156l-15.026-18.7
	l15.114-15.07l18.865,15.059c3.773,3.025,9.086,3.201,13.079,0.484c13.948-9.559,29.425-16.016,46.013-19.206
	c4.741-0.913,8.327-4.796,8.866-9.592l2.695-24.31h21.406l2.65,23.914c0.539,4.862,4.225,8.778,9.043,9.625
	c17.248,3.014,33.308,9.526,47.729,19.338c3.982,2.728,9.295,2.519,13.057-0.495l18.524-14.806l15.114,15.059l-14.663,18.216
	c-3.059,3.817-3.245,9.196-0.44,13.2c10.109,14.432,16.83,30.525,19.987,47.828c0.869,4.785,4.785,8.426,9.614,8.954l23.198,2.541
	v21.263l-23.243,2.541c-4.828,0.528-8.744,4.158-9.625,8.943c-3.179,17.237-9.922,33.286-20.041,47.685
	c-2.816,4.016-2.641,9.405,0.429,13.223l14.784,18.348l-15.114,15.06l-18.711-14.961c-3.763-3.003-9.042-3.212-13.046-0.506
	c-14.366,9.746-30.36,16.203-47.531,19.206c-4.818,0.836-8.503,4.764-9.042,9.625l-2.662,24.2H291.97l-2.706-24.596
	c-0.528-4.796-4.125-8.69-8.866-9.604c-16.621-3.201-32.131-9.68-46.09-19.261c-4.015-2.75-9.328-2.563-13.09,0.473l-18.656,14.895
	l-15.114-15.07l14.894-18.523c3.047-3.796,3.245-9.152,0.473-13.156c-9.845-14.201-16.412-29.986-19.558-46.915
	c-0.891-4.773-4.796-8.393-9.614-8.932l-24.431-2.685v-21.274H149.179z"/>
<path fill="#FFFFFF" d="M303.18,314.446c24.276,0,44.021-19.701,44.021-43.912s-19.745-43.912-44.021-43.912
	c-24.267,0-44.012,19.701-44.012,43.912S278.913,314.446,303.18,314.446z M303.18,248.633c12.144,0,22.021,9.834,22.021,21.912
	s-9.878,21.912-22.021,21.912c-12.145,0-22.012-9.834-22.012-21.912S291.046,248.633,303.18,248.633z"/>
</svg>
